HIERARCHY
ROOT pelvis
{
  OFFSET 0 100 0
  CHANNELS 6 Xposition Yposition Zposition Zrotation Xrotation Yrotation
  JOINT pelvis_right_femur
  {
    OFFSET -10.78128 -3.44521 -0.5502486
    CHANNELS 3 Zrotation Xrotation Yrotation
    JOINT right_femur_tibia
    {
      OFFSET -0.8047443 -44.0398 -0.1307829
      CHANNELS 3 Zrotation Xrotation Yrotation
      JOINT right_tibia_foot
      {
        OFFSET 3.006224 -47.83518 -5
        CHANNELS 3 Zrotation Xrotation Yrotation
        End Site
        {
          OFFSET 0 -5 15
        }
      }
    }
  }
  JOINT pelvis_left_femur
  {
    OFFSET 10.78128 -3.44521 -0.5502486
    CHANNELS 3 Zrotation Xrotation Yrotation
    JOINT left_femur_tibia
    {
      OFFSET 0.8047443 -44.0398 -0.1307829
      CHANNELS 3 Zrotation Xrotation Yrotation
      JOINT left_tibia_foot
      {
        OFFSET -4.370144 -48.10324 -4.275266
        CHANNELS 3 Zrotation Xrotation Yrotation
        End Site
        {
          OFFSET 0 -5 15
        }
      }
    }
  }
  JOINT pelvis_spine1
  {
    OFFSET 0 6.468898 -3.129235
    CHANNELS 3 Zrotation Xrotation Yrotation
    JOINT spine1
    {
      OFFSET 0 23.15396 4.99043
      CHANNELS 3 Zrotation Xrotation Yrotation
      JOINT spine2
      {
        OFFSET 0 20.79997 -5.064912
        CHANNELS 3 Zrotation Xrotation Yrotation
        JOINT neck
        {
          OFFSET 0 14.38658 9.616178
          CHANNELS 3 Zrotation Xrotation Yrotation
          End Site
          {
            OFFSET 0 20 0
          }
        }
      }
      JOINT right_manubrium
      {
        OFFSET -5.722621 16.35077 3.967754
        CHANNELS 3 Zrotation Xrotation Yrotation
        JOINT right_clavicle
        {
          OFFSET -13.16364 1.694482 -4.693211
          CHANNELS 3 Zrotation Xrotation Yrotation
          JOINT right_humerus
          {
            OFFSET -28.5034 -0.3100689 -2.792744
            CHANNELS 3 Zrotation Xrotation Yrotation
            JOINT right_radius
            {
              OFFSET -25.15693 0.02248979 -1.271978
              CHANNELS 3 Zrotation Xrotation Yrotation
              End Site
              {
                OFFSET -15 0 0
              }
            }
          }
        }
      }
      JOINT left_manubrium
      {
        OFFSET 5.722621 16.35077 3.967754
        CHANNELS 3 Zrotation Xrotation Yrotation
        JOINT left_clavicle
        {
          OFFSET 13.16364 1.694482 -4.693211
          CHANNELS 3 Zrotation Xrotation Yrotation
          JOINT left_humerus
          {
            OFFSET 29.39168 -1.063119 -2.237045
            CHANNELS 3 Zrotation Xrotation Yrotation
            JOINT left_radius
            {
              OFFSET 24.59957 -0.9528479 0.9047498
              CHANNELS 3 Zrotation Xrotation Yrotation
              End Site
              {
                OFFSET 15 -0 -0
              }
            }
          }
        }
      }
    }
  }
}
MOTION
Frames: 11
Frame Time: 0.0416666666667
0 103.5113 0 2.079142 0.2320038 0.1808394 4.433888 -15.55425 10.31846 -0 39.07581 -0 -4.214195 -17.59714 -2.150631 -9.098867 9.854726 -22.97329 -0 4.085508 -0 21.04114 -9.91742 31.13429 -2.026617 -2.403532 5.730553 2.213961 9.892285 -7.239402 1.356851 21.00773 6.698647 3.582037 -25.1855 8.964354 5.782902 -19.56584 11.49867 84.53571 36.06209 -16.95137 -0 0 16.54255 -8.987092 9.671772 5.148648 7.040829 -21.06974 0.2493868 -93.47659 22.4816 21.79152 0 0 -14.36837 12.34201 15.35267 -0.4062434
0.3654111 103.8265 1.496416 1.677392 1.075788 0.3661957 5.378451 -17.16775 10.91425 -0 39.26439 -0 -4.621693 -16.36188 -2.018149 -8.988586 9.423412 -22.68461 -0 4.808841 -0 21.63946 -10.0248 31.21726 -1.871293 -2.450276 5.431222 2.447343 9.799985 -7.589386 1.392074 20.61046 6.94999 3.727813 -25.7849 9.268935 5.684886 -19.27557 11.38499 85.38301 35.66836 -18.38668 -0 0 15.85031 -8.681986 9.843428 4.68994 7.381205 -21.32364 0.2550851 -93.22527 22.38018 21.13023 0 0 -15.32229 12.64414 15.16386 -0.7390859
0.6886259 103.7441 4.050035 1.067159 1.327278 0.6454018 5.207574 -23.08546 5.317402 -0 28.89521 -0 -7.589512 -9.88047 -0.1005351 -7.961299 11.69184 -19.4861 -0 7.42719 -0 16.99824 -14.53183 25.72404 -2.016429 -2.372697 5.515139 2.390779 9.801435 -7.397642 1.344211 20.89696 6.788211 3.618664 -25.43647 9.031203 5.784149 -19.33931 11.47319 84.82928 35.84963 -17.54928 -0 0 16.05148 -8.907548 9.691068 5.086468 7.033092 -21.08781 0.1276599 -93.34305 22.60264 21.489 0 0 -14.76153 12.09396 15.25641 -0.1220991
0.9983175 103.5462 7.05563 0.673172 1.935483 0.9513306 5.337836 -25.92422 4.144178 -0 24.92323 -0 -8.291356 -7.099071 0.2492852 -7.508288 12.3013 -18.21527 -0 8.639617 -0 14.61612 -16.46026 23.54797 -2.101264 -2.314126 5.48388 2.424402 9.762388 -7.33938 1.311537 21.02969 6.722961 3.566755 -25.32434 8.913355 5.842503 -19.29261 11.51624 84.59714 35.88115 -17.25758 -0 0 15.98789 -9.014785 9.605455 5.30545 6.81739 -20.94717 0.00624262 -93.36824 22.79168 21.59771 0 0 -14.57013 11.6587 15.27928 0.3678855
1.290947 103.2581 10.6585 0.1951561 2.405469 1.302053 5.62609 -28.94987 2.54196 -0 20.90846 -0 -9.296113 -3.81187 0.9070251 -7.047215 13.00584 -16.35258 -0 10.8858 -0 12.82404 -17.59272 21.04647 -2.161882 -2.246609 5.432802 2.465849 9.746842 -7.325614 1.276101 21.10626 6.681002 3.532584 -25.22673 8.794304 5.870144 -19.21794 11.55002 84.48249 35.8174 -17.13226 -0 0 15.83895 -9.181444 9.560052 5.524955 6.641629 -20.86043 -0.1295612 -93.29443 22.92423 21.5692 0 0 -14.55184 11.22262 15.19286 0.8708556
1.572468 103.0009 14.82766 -0.346045 2.993025 1.681686 6.220023 -31.44726 1.716448 -0 18.04793 -0 -10.05117 -0.9422284 1.426786 -6.622002 13.39534 -14.65733 -0 13.75084 -0 11.40823 -17.9782 18.8996 -2.22079 -2.173747 5.36877 2.51619 9.729428 -7.322882 1.238662 21.17477 6.644386 3.500796 -25.13665 8.674284 5.894543 -19.12816 11.58276 84.39131 35.73355 -17.04706 -0 0 15.65461 -9.36056 9.520449 5.750061 6.464167 -20.77706 -0.2766072 -93.19998 23.06073 21.5108 0 0 -14.57038 10.76015 15.08426 1.405822
1.845047 102.867 19.61295 -0.9604087 3.499703 2.062925 7.033664 -33.35078 1.159629 -0 15.79664 -0 -10.76042 1.828335 1.948558 -6.156639 13.59893 -12.83292 -0 17.85148 -0 9.966116 -17.60551 16.63317 -2.283472 -2.091945 5.327191 2.545355 9.7312 -7.30419 1.196911 21.25768 6.594706 3.463946 -24.99355 8.525424 5.913915 -19.05499 11.62209 84.26881 35.64897 -16.89265 -0 0 15.50129 -9.600754 9.484631 6.020326 6.272096 -20.69252 -0.4288627 -93.08702 23.18215 21.45803 0 0 -14.57199 10.27055 14.94329 1.977861
2.115492 102.9929 25.03387 -1.656537 3.957185 2.402423 8.114674 -34.34468 1.090319 -0 14.34629 -0 -11.30647 4.277289 2.351261 -5.615305 13.41025 -10.99015 -0 23.44884 -0 8.23895 -16.39448 14.2263 -2.358618 -2.000977 5.32542 2.541344 9.75212 -7.247769 1.150565 21.37795 6.520025 3.415719 -24.7732 8.337784 5.93457 -19.01552 11.67306 84.06326 35.59262 -16.58547 -0 0 15.42071 -9.909468 9.441934 6.353281 6.048029 -20.58921 -0.5819722 -92.98237 23.3008 21.46055 0 0 -14.49457 9.744956 14.7918 2.597135
2.393891 103.5178 31.0799 -2.377109 4.313736 2.634463 9.344254 -33.98034 1.523184 -0 13.61448 -0 -11.53303 6.152596 2.487758 -4.981509 12.58257 -9.163125 -0 30.86333 -0 6.014278 -14.2117 11.63557 -2.446761 -1.901424 5.38641 2.485999 9.801576 -7.137673 1.100596 21.54243 6.412594 3.355427 -24.44984 8.101809 5.952214 -19.03138 11.73763 83.74288 35.57473 -16.06329 -0 0 15.45762 -10.31295 9.394604 6.764949 5.792015 -20.46537 -0.7258302 -92.89228 23.40216 21.54339 0 0 -14.31073 9.196002 14.62549 3.252246
2.692522 104.5604 37.65703 -2.983185 4.553777 2.681117 10.42243 -31.7647 2.439448 -0 13.38344 -0 -11.22549 7.020408 2.162248 -4.288742 10.73872 -7.511023 -0 40.02355 -0 3.264814 -11.04302 9.026171 -2.546324 -1.795302 5.528844 2.365474 9.882882 -6.961726 1.049831 21.74883 6.26748 3.284922 -24.01116 7.813613 5.959512 -19.12246 11.81505 83.2799 35.59898 -15.27492 -0 0 15.65348 -10.83402 9.347857 7.266454 5.509721 -20.31849 -0.8480209 -92.82204 23.47088 21.72687 0 0 -14.0063 8.637469 14.43882 3.928037
3.016278 106.1472 44.5487 -3.239795 4.595402 2.469919 10.84415 -27.41301 3.591539 -0 13.14162 -0 -10.32783 6.448923 1.294937 -3.64024 7.506201 -6.245502 -0 50.21006 -0 0.265905 -7.208246 6.779783 -2.650324 -1.686381 5.769964 2.167053 9.997297 -6.713411 1.003664 21.97836 6.082611 3.209456 -23.45534 7.473746 5.941388 -19.31103 11.90077 82.65628 35.65302 -14.18399 -0 0 16.0541 -11.50112 9.31493 7.865604 5.219453 -20.15009 -0.9315646 -92.76628 23.47707 22.01696 0 0 -13.59309 8.091483 14.21288 4.596223
